<svg width="128" height="128" viewBox="0 0 128 128" fill="none" xmlns="http://www.w3.org/2000/svg">
  <circle cx="64" cy="64" r="64" fill="#E5E7EB"/>
  <path d="M64 32C72.8366 32 80 39.1634 80 48C80 56.8366 72.8366 64 64 64C55.1634 64 48 56.8366 48 48C48 39.1634 55.1634 32 64 32Z" fill="#9CA3AF"/>
  <path d="M96 96C96 87.5131 92.6071 79.3739 86.6061 73.3729C80.6051 67.3719 72.4659 64 64 64C55.5341 64 47.3949 67.3719 41.3939 73.3729C35.3929 79.3739 32 87.5131 32 96V104H96V96Z" fill="#9CA3AF"/>
</svg>